<svg xmlns="http://www.w3.org/2000/svg" version="1.1" xmlns:xlink="http://www.w3.org/1999/xlink" xmlns:svgjs="http://svgjs.dev/svgjs" width="2000" height="1999" viewBox="0 0 2000 1999"><g transform="matrix(1,0,0,1,-0.431486880466764,-0.4312711370263287)"><svg viewBox="0 0 343 343" data-background-color="#ffffff" preserveAspectRatio="xMidYMid meet" height="1999" width="2000" xmlns="http://www.w3.org/2000/svg" xmlns:xlink="http://www.w3.org/1999/xlink"><g id="tight-bounds" transform="matrix(1,0,0,1,0.0740000000000407,0.07400000000001228)"><svg viewBox="0 0 342.85155851775386 342.85155851775386" height="342.85155851775386" width="342.85155851775386"><g><svg></svg></g><g><svg viewBox="0 0 342.85155851775386 342.85155851775386" height="342.85155851775386" width="342.85155851775386"><g><path d="M0 171.426c0-94.676 76.75-171.426 171.426-171.426 94.676 0 171.426 76.75 171.426 171.426 0 94.676-76.75 171.426-171.426 171.426-94.676 0-171.426-76.75-171.426-171.426zM171.426 337.167c91.536 0 165.741-74.205 165.741-165.741 0-91.536-74.205-165.741-165.741-165.741-91.536 0-165.741 74.205-165.741 165.741 0 91.536 74.205 165.741 165.741 165.741z" data-fill-palette-color="tertiary" fill="#010c80" stroke="transparent"></path><ellipse rx="164.56874808852186" ry="164.56874808852186" cx="171.42577925887693" cy="171.42577925887693" fill="#010c80" stroke="transparent" stroke-width="0" fill-opacity="1" data-fill-palette-color="tertiary"></ellipse></g><g transform="matrix(1,0,0,1,64.84655864529837,88.90881021489469)"><svg viewBox="0 0 213.1584412271571 165.0339380879645" height="165.0339380879645" width="213.1584412271571"><g><svg viewBox="0 0 213.1584412271571 165.0339380879645" height="165.0339380879645" width="213.1584412271571"><g><svg viewBox="0 0 213.1584412271571 165.0339380879645" height="165.0339380879645" width="213.1584412271571"><g transform="matrix(1,0,0,1,0,101.99759457159426)"><svg viewBox="0 0 213.1584412271571 63.036343516370216" height="63.036343516370216" width="213.1584412271571"><g id="textblocktransform"><svg viewBox="0 0 213.1584412271571 63.036343516370216" height="63.036343516370216" width="213.1584412271571" id="textblock"><g><svg viewBox="0 0 213.1584412271571 63.036343516370216" height="63.036343516370216" width="213.1584412271571"><g transform="matrix(1,0,0,1,0,0)"><svg width="213.1584412271571" viewBox="2.490000009536743 -30.65999984741211 104.51000213623047 30.899999618530273" height="63.036343516370216" data-palette-color="#ffffff"><path d="M15.84 0.24Q9.33 0.24 5.91-3.71 2.49-7.67 2.49-15.28L2.49-15.28Q2.49-22.88 5.9-26.77 9.3-30.66 15.84-30.66L15.84-30.66Q22.41-30.66 25.83-26.77 29.25-22.88 29.25-15.28L29.25-15.28Q29.25-7.67 25.83-3.71 22.41 0.24 15.84 0.24L15.84 0.24ZM15.84-3.05Q20.43-3.05 22.88-6.19 25.32-9.33 25.32-15.28L25.32-15.28Q25.32-21.24 22.89-24.3 20.46-27.37 15.84-27.37L15.84-27.37Q11.25-27.37 8.84-24.3 6.42-21.24 6.42-15.28L6.42-15.28Q6.42-9.3 8.84-6.18 11.25-3.05 15.84-3.05L15.84-3.05ZM58.47-22.95Q61.18-22.95 63.23-21.41 65.28-19.87 65.28-15.94L65.28-15.94 65.28-0.88Q65.28-0.39 64.87-0.16 64.45 0.07 63.55 0.07L63.55 0.07 63.4 0.07Q62.47 0.07 62.06-0.16 61.64-0.39 61.64-0.88L61.64-0.88 61.64-15.58Q61.64-17.55 60.58-18.68 59.52-19.8 57.47-19.8L57.47-19.8Q55.76-19.8 54.38-18.81 53-17.82 52.15-16.75L52.15-16.75Q52.19-16.16 52.19-15.87L52.19-15.87 52.19-0.88Q52.19 0.07 50.44 0.07L50.44 0.07 50.27 0.07Q48.53 0.07 48.53-0.88L48.53-0.88 48.53-15.58Q48.53-17.55 47.47-18.68 46.41-19.8 44.36-19.8L44.36-19.8Q42.94-19.8 41.77-19.13 40.6-18.46 39.83-17.68 39.06-16.89 39.06-16.8L39.06-16.8 39.06-0.88Q39.06-0.39 38.66-0.16 38.25 0.07 37.35 0.07L37.35 0.07 37.16 0.07Q36.25 0.07 35.85-0.16 35.45-0.39 35.45-0.88L35.45-0.88 35.45-16.11Q35.45-18.95 35.18-20.2 34.91-21.46 34.91-21.58L34.91-21.58Q34.91-22.12 35.73-22.35 36.55-22.58 37.25-22.58L37.25-22.58Q37.86-22.58 38.16-21.92 38.45-21.26 38.58-20.58 38.72-19.9 38.77-19.7L38.77-19.7Q39.96-21.09 41.7-22.02 43.43-22.95 45.36-22.95L45.36-22.95Q47.34-22.95 49.05-22.16 50.75-21.36 51.56-19.36L51.56-19.36Q52.9-20.95 54.71-21.95 56.52-22.95 58.47-22.95L58.47-22.95ZM78.1 0.24Q74.78 0.24 72.72-1.39 70.67-3.03 70.67-6.25L70.67-6.25Q70.67-9.64 72.75-11.36 74.82-13.09 77.81-13.59 80.81-14.09 85.08-14.16L85.08-14.16 85.08-16.21Q85.08-17.85 83.97-18.84 82.86-19.82 80.32-19.82L80.32-19.82Q78.39-19.82 76.94-19.37 75.48-18.92 74.21-18.29L74.21-18.29Q73.68-18.02 73.55-18.02L73.55-18.02Q73.26-18.02 72.91-18.44 72.55-18.87 72.3-19.41 72.04-19.95 72.04-20.19L72.04-20.19Q72.04-20.75 73.2-21.41 74.36-22.07 76.24-22.51 78.12-22.95 80.17-22.95L80.17-22.95Q84.25-22.95 86.49-21.17 88.74-19.38 88.74-16.16L88.74-16.16 88.74-6.42Q88.74-3.59 89-2.33 89.25-1.07 89.25-0.95L89.25-0.95Q89.25-0.42 88.43-0.18 87.62 0.05 86.91 0.05L86.91 0.05Q86.32 0.05 86.04-0.61 85.76-1.27 85.49-2.51L85.49-2.51 85.4-3Q84.05-1.51 82.23-0.63 80.41 0.24 78.1 0.24L78.1 0.24ZM78.29-2.91Q80.44-2.91 81.95-3.69 83.47-4.47 85.08-5.91L85.08-5.91 85.08-11.04Q81.86-11.01 79.78-10.77 77.7-10.52 76.14-9.53 74.58-8.54 74.58-6.47L74.58-6.47Q74.58-4.74 75.52-3.82 76.46-2.91 78.29-2.91L78.29-2.91ZM97.87 0.07Q96.94 0.07 96.53-0.16 96.11-0.39 96.11-0.88L96.11-0.88 96.11-16.11Q96.11-18.95 95.84-20.2 95.57-21.46 95.57-21.58L95.57-21.58Q95.57-22.12 96.39-22.35 97.21-22.58 97.94-22.58L97.94-22.58Q98.53-22.58 98.82-21.96 99.11-21.34 99.33-20.21L99.33-20.21 99.46-19.7Q101.77-22.95 104.48-22.95L104.48-22.95Q105.73-22.95 106.36-22.5 107-22.05 107-21.29L107-21.29Q107-20.56 106.74-19.74 106.49-18.92 106.14-18.92L106.14-18.92Q105.97-18.92 105.53-19.07L105.53-19.07Q105.14-19.24 104.75-19.32 104.36-19.41 103.75-19.41L103.75-19.41Q102.75-19.41 101.86-18.82 100.97-18.24 100.36-17.53 99.75-16.82 99.75-16.75L99.75-16.75 99.75-0.88Q99.75-0.39 99.33-0.16 98.92 0.07 98.04 0.07L98.04 0.07 97.87 0.07Z" opacity="1" transform="matrix(1,0,0,1,0,0)" fill="#ffffff" class="wordmark-text-0" data-fill-palette-color="quaternary" id="text-0"></path></svg></g></svg></g></svg></g></svg></g><g transform="matrix(1,0,0,1,57.13793694261846,0)"><svg viewBox="0 0 98.8825673419202 87.11622673962364" height="87.11622673962364" width="98.8825673419202"><g><svg xmlns="http://www.w3.org/2000/svg" xmlns:xlink="http://www.w3.org/1999/xlink" version="1.1" x="0" y="0" viewBox="6.300000190734863 11.5 87.39999389648438 77" style="enable-background:new 0 0 100 100;" xml:space="preserve" height="87.11622673962364" width="98.8825673419202" class="icon-icon-0" data-fill-palette-color="quaternary" id="icon-0"><path d="M72.3 12.3L72.3 12.3 72.3 12.3l-0.4-0.8H28.2L6.3 50l21.8 38.5h43.7L93.7 50 72.3 12.3zM33.3 25.3L9.9 47.7l18.6-32.8L33.3 25.3zM70.7 14.8l6.4 35.7L36.9 25.8 70.7 14.8zM35.5 27.3l41 25.2-41 23.3V27.3zM77 54.5l-7.2 30.8-32.6-8.1L77 54.5zM33.5 75L9.9 50.5l23.6-22.7V75zM33.2 77.6l-4.6 7.7L11.5 55.1 33.2 77.6zM35 78.6l31.4 7.9H30.2L35 78.6zM79.3 53.3l11.6-2.5L72.1 84 79.3 53.3zM90.7 48.9l-11.4 2.5-5.9-33.1L90.7 48.9zM35 24.3l-5-10.8h38.2L35 24.3z" fill="#ffffff" data-fill-palette-color="quaternary"></path></svg></g></svg></g><g></g></svg></g></svg></g></svg></g></svg></g><defs></defs></svg><rect width="342.85155851775386" height="342.85155851775386" fill="none" stroke="none" visibility="hidden"></rect></g></svg></g></svg>